<?xml version="1.0" encoding="UTF-8" standalone="no"?>
<svg
   xmlns:dc="http://purl.org/dc/elements/1.1/"
   xmlns:cc="http://creativecommons.org/ns#"
   xmlns:rdf="http://www.w3.org/1999/02/22-rdf-syntax-ns#"
   xmlns:svg="http://www.w3.org/2000/svg"
   xmlns="http://www.w3.org/2000/svg"
   xmlns:sodipodi="http://sodipodi.sourceforge.net/DTD/sodipodi-0.dtd"
   xmlns:inkscape="http://www.inkscape.org/namespaces/inkscape"
   width="18"
   height="18"
   viewBox="0 0 18 18"
   version="1.1"
   id="svg861"
   sodipodi:docname="baseline-select_none-24px.svg"
   inkscape:version="0.92.3 (2405546, 2018-03-11)"
   inkscape:export-filename="D:\git\novprod\icons\32x32\select_none.png"
   inkscape:export-xdpi="128"
   inkscape:export-ydpi="128">
  <metadata
     id="metadata867">
    <rdf:RDF>
      <cc:Work
         rdf:about="">
        <dc:format>image/svg+xml</dc:format>
        <dc:type
           rdf:resource="http://purl.org/dc/dcmitype/StillImage" />
        <dc:title />
      </cc:Work>
    </rdf:RDF>
  </metadata>
  <defs
     id="defs865" />
  <sodipodi:namedview
     pagecolor="#ffffff"
     bordercolor="#666666"
     borderopacity="1"
     objecttolerance="10"
     gridtolerance="10"
     guidetolerance="10"
     inkscape:pageopacity="0"
     inkscape:pageshadow="2"
     inkscape:window-width="1920"
     inkscape:window-height="1001"
     id="namedview863"
     showgrid="false"
     fit-margin-top="0"
     fit-margin-left="0"
     fit-margin-right="0"
     fit-margin-bottom="0"
     inkscape:zoom="9.8333333"
     inkscape:cx="-13.423729"
     inkscape:cy="9"
     inkscape:window-x="-9"
     inkscape:window-y="-9"
     inkscape:window-maximized="1"
     inkscape:current-layer="svg861" />
  <path
     d="M -3,-3 H 21 V 21 H -3 Z"
     id="path857"
     inkscape:connector-curvature="0"
     style="fill:none" />
  <path
     d="M 0,2 H 2 V 0 C 0.9,0 0,0.9 0,2 Z m 0,8 H 2 V 8 H 0 Z m 4,8 H 6 V 16 H 4 Z M 0,6 H 2 V 4 H 0 Z M 10,0 H 8 v 2 h 2 z m 6,0 v 2 h 2 C 18,0.9 17.1,0 16,0 Z M 2,18 V 16 H 0 c 0,1.1 0.9,2 2,2 z M 0,14 H 2 V 12 H 0 Z M 6,0 H 4 v 2 h 2 z m 2,18 h 2 V 16 H 8 Z m 8,-8 h 2 V 8 h -2 z m 0,8 c 1.1,0 2,-0.9 2,-2 H 16 Z M 16,6 h 2 V 4 h -2 z m 0,8 h 2 v -2 h -2 z m -4,4 h 2 V 16 H 12 Z M 12,2 h 2 V 0 H 12 Z M 4,14 H 14 V 4 H 4 Z M 6,6 h 6 v 6 H 6 Z"
     id="path859"
     inkscape:connector-curvature="0"
     inkscape:export-filename="D:\git\novprod\icons\32x32\select_all.png"
     inkscape:export-xdpi="170.66667"
     inkscape:export-ydpi="170.66667" />
</svg>
